<svg width="32" height="32" viewBox="0 0 40 40" fill="none" xmlns="http://www.w3.org/2000/svg">
  <!-- Central atom/node -->
  <circle cx="20" cy="20" r="4" fill="#1e3a8a" />
  
  <!-- Connected atoms/nodes forming a molecule structure -->
  <circle cx="20" cy="8" r="3" fill="#1e40af" />
  <circle cx="32" cy="20" r="3" fill="#1e40af" />
  <circle cx="20" cy="32" r="3" fill="#1e40af" />
  <circle cx="8" cy="20" r="3" fill="#1e40af" />
  <circle cx="28" cy="10" r="2.5" fill="#3b82f6" />
  <circle cx="30" cy="30" r="2.5" fill="#3b82f6" />
  <circle cx="10" cy="30" r="2.5" fill="#3b82f6" />
  <circle cx="12" cy="10" r="2.5" fill="#3b82f6" />
  
  <!-- Bonds/connections between atoms -->
  <line x1="20" y1="20" x2="20" y2="8" stroke="#1e3a8a" stroke-width="1.5" />
  <line x1="20" y1="20" x2="32" y2="20" stroke="#1e3a8a" stroke-width="1.5" />
  <line x1="20" y1="20" x2="20" y2="32" stroke="#1e3a8a" stroke-width="1.5" />
  <line x1="20" y1="20" x2="8" y2="20" stroke="#1e3a8a" stroke-width="1.5" />
  <line x1="20" y1="8" x2="28" y2="10" stroke="#2563eb" stroke-width="1" stroke-dasharray="2,2" />
  <line x1="32" y1="20" x2="30" y2="30" stroke="#2563eb" stroke-width="1" stroke-dasharray="2,2" />
  <line x1="20" y1="32" x2="10" y2="30" stroke="#2563eb" stroke-width="1" stroke-dasharray="2,2" />
  <line x1="8" y1="20" x2="12" y2="10" stroke="#2563eb" stroke-width="1" stroke-dasharray="2,2" />
</svg>

